<svg width="144" height="168" viewBox="0 0 144 168" fill="none" xmlns="http://www.w3.org/2000/svg">
<path d="M78.1852 72.728L120.772 28.9079L89.7565 85.4245L89.3176 86.2244L90.228 86.164L122.568 84.0187L94.7647 95.2451L94.0721 95.5248L94.5946 96.0585L138.248 140.652L82.5088 109.765L81.9142 109.435L81.7768 110.101L75.7721 139.198L70.6443 110.115L70.492 109.252L69.8264 109.823L22.9232 150.056L61.0902 102.825L61.597 102.198L60.8099 102.022L19.9983 92.9397L58.095 88.5137L59.0701 88.4005L58.4051 87.6784L35.1317 62.4048L62.0692 75.4359L63.1596 75.9634L62.7588 74.8203L44.7967 23.5981L77.4102 72.6563L77.7533 73.1724L78.1852 72.728Z" fill="#93C6F9" stroke="black"/>
<path d="M68.069 108C68.069 108 86.5875 106.706 77.4821 94.3812C68.3766 81.9949 55.026 81.81 49.3043 75.9558C43.5826 70.1016 36.6919 49.5809 25.187 49.0263C13.6821 48.4717 6.11472 56.7293 10.0522 69.5469C13.9282 82.303 31.3394 99.7425 68.069 108Z" fill="white" stroke="#242424" stroke-miterlimit="10" stroke-linecap="round" stroke-linejoin="round"/>
<path d="M61.0023 90C61.0023 90 66.4151 77.0912 59.4211 70.8551C52.3663 64.619 43.0005 65.5544 39.7772 67.3005C36.5539 69.0466 43.3046 90 61.0023 90Z" fill="#FFCC00" stroke="#242424" stroke-miterlimit="10"/>
<path d="M10.7384 83.3359L92.9035 105.775L93.7887 106.028L135.469 117.427C136.46 117.697 137.056 118.726 136.786 119.726L135.565 124.25C135.295 125.249 134.271 125.852 133.28 125.582L91.3875 114.149L80.757 130.055C80.3175 130.752 79.4521 131.052 78.7262 130.825L11.3248 112.417C10.5458 112.181 9.99517 111.543 9.96555 110.715L8.46442 85.2743C8.29159 83.9837 9.49032 82.9696 10.7384 83.3359Z" fill="#9797FF" stroke="black"/>
<path d="M16.9133 94.1729L16.2226 97.0923" stroke="black" stroke-linecap="round"/>
<path d="M24.6985 96.0146L24.0078 98.9341" stroke="black" stroke-linecap="round"/>
<path d="M17.2478 101.445L21.1403 102.366" stroke="black" stroke-linecap="round"/>
<path d="M53.8683 124.127C53.8683 124.127 54.8534 115.502 60.6079 112.666C60.6079 112.666 57.1002 125.864 59.9343 132.304C59.9343 132.304 60.8087 123.6 62.894 119.902C62.894 119.902 62.3785 127.845 66.2259 133.246C70.0041 138.7 65.3995 151.859 55.1985 149.204C44.9975 146.548 45.4736 134.776 46.8388 129.341C48.204 123.906 52.1414 119.294 52.1414 119.294L53.8683 124.127Z" fill="#FF6633" stroke="black" stroke-miterlimit="10" stroke-linecap="round" stroke-linejoin="round"/>
</svg>
