<svg width="144" height="168" viewBox="0 0 144 168" fill="none" xmlns="http://www.w3.org/2000/svg">
<path d="M39.724 152.938L39.7234 152.931L29.1046 34.9062H111.196L100.578 152.983C100.578 152.985 100.578 152.986 100.578 152.987C100.37 154.997 98.6674 156.499 96.645 156.499H43.5975C41.5807 156.499 39.8784 154.946 39.724 152.938Z" fill="white" stroke="black"/>
<path d="M118.74 41.1114L117.749 37.5555C117.458 36.6228 116.642 35.9233 115.651 35.9233H112.211V25.7801C112.211 23.1569 110.054 21 107.431 21H33.3978C30.7746 21 28.6177 23.1569 28.6177 25.7801V35.9233H25.1784C24.1874 35.9233 23.313 36.5645 23.0798 37.5555L22.0888 41.1114C21.6808 42.5105 22.73 43.9095 24.1874 43.9095H116.7C118.041 43.8512 119.09 42.5105 118.74 41.1114Z" fill="#333333" stroke="#333333" stroke-width="0.141844" stroke-miterlimit="10"/>
<path d="M35.1196 126.121L35.1193 126.118L30.7477 77.6224C30.7122 77.0922 31.129 76.6465 31.6483 76.6465H109.063C109.582 76.6465 109.999 77.0922 109.963 77.6223C109.963 77.6237 109.963 77.6251 109.963 77.6265L105.592 126.118L105.592 126.121C105.555 126.559 105.133 126.945 104.691 126.945H36.0204C35.578 126.945 35.1561 126.559 35.1196 126.121Z" fill="#8279FC" stroke="black"/>
<path d="M45 58L45 61" stroke="black" stroke-linecap="round"/>
<path d="M53 58L53 61" stroke="black" stroke-linecap="round"/>
<path d="M48 67.2734C48 67.2734 51.397 69.5185 54.3743 65.7842" stroke="black" stroke-miterlimit="10" stroke-linecap="round" stroke-linejoin="round"/>
<path d="M20.5 117L22.7291 126.96L29 130.5L22.7291 134.04L20.5 144L18.2709 134.04L12 130.5L18.2709 126.96L20.5 117Z" fill="#FEE05B" stroke="black" stroke-miterlimit="10"/>
<path d="M127.5 11L129.729 20.9597L136 24.5L129.729 28.0403L127.5 38L125.271 28.0403L119 24.5L125.271 20.9597L127.5 11Z" fill="#FEE05B" stroke="black" stroke-miterlimit="10"/>
</svg>
