<svg width="144" height="168" viewBox="0 0 144 168" fill="none" xmlns="http://www.w3.org/2000/svg">
<path d="M80.9624 29.6527C75.0373 32.1757 70.9734 37.2411 69.4397 43.0235C64.2002 40.1479 57.7641 39.6128 51.839 42.1357C45.9138 44.6587 41.7881 49.83 40.3018 55.7255C35.0149 52.7368 28.4733 52.1397 22.4899 54.7138C12.2738 59.0979 7.54298 70.9377 11.912 81.1791C16.281 91.4205 28.0882 96.1596 38.3044 91.7756C44.2877 89.2014 48.4099 84.0849 49.8961 78.1894C55.183 81.1781 61.7247 81.7752 67.7081 79.2011C73.6332 76.6781 77.6971 71.6127 79.2308 65.8303C84.4703 68.7059 90.9064 69.241 96.8315 66.718C107.048 62.334 111.778 50.4942 107.409 40.2528C103.04 30.0114 91.1786 25.2687 80.9624 29.6527Z" fill="#AFAFF9" stroke="black" stroke-miterlimit="10"/>
<path d="M122.735 148.287H133.785C134.789 148.287 135.66 147.549 135.861 146.542L140.95 128.891C141.151 127.616 140.214 126.408 138.874 126.408H127.824C126.82 126.408 125.949 127.146 125.748 128.153L120.658 145.804C120.458 147.079 121.462 148.287 122.735 148.287Z" fill="#FF6633" stroke="black" stroke-miterlimit="10"/>
<path d="M57.3043 160.638H123.604C126.216 160.638 127.556 158.624 128.359 155.94L136.329 127.819C136.329 125.269 134.186 123.121 131.574 123.121H49.3349C46.7231 123.121 44.5801 125.202 44.5801 127.819L52.5495 155.94C53.3531 158.557 54.6925 160.638 57.3043 160.638Z" fill="white" stroke="black" stroke-miterlimit="10" stroke-linecap="round" stroke-linejoin="round"/>
<path d="M59.113 149.362H48.063C47.0585 149.362 46.1879 148.623 45.9869 147.617L40.8972 129.966C40.6963 128.69 41.6339 127.482 42.9733 127.482H54.0233C55.0279 127.482 55.8985 128.221 56.0994 129.227L61.1891 146.878C61.39 148.154 60.3855 149.362 59.113 149.362Z" fill="#FF6633" stroke="black" stroke-miterlimit="10"/>
<path d="M42.1024 130.973H138.941C140.079 130.973 141.017 130.033 141.017 128.892V115.067C141.017 113.926 140.079 112.986 138.941 112.986H42.1024C40.9639 112.986 40.0264 113.926 40.0264 115.067V128.892C40.0264 130.1 40.9639 130.973 42.1024 130.973Z" fill="#FEE05B" stroke="black" stroke-miterlimit="10"/>
<path d="M58.2429 100.301H47.1929C46.1883 100.301 45.3177 99.5628 45.1168 98.5561L40.0271 80.9051C39.8262 79.6299 40.7638 78.4219 42.1032 78.4219H53.1532C54.1578 78.4219 55.0284 79.1601 55.2293 80.1668L60.319 97.8179C60.5199 99.093 59.5823 100.301 58.2429 100.301Z" fill="#FF6633" stroke="black" stroke-miterlimit="10"/>
<path d="M123.671 112.652H57.3713C54.7595 112.652 53.2192 110.303 52.6165 107.954L44.5801 79.8328C44.5801 77.2824 46.7231 75.1348 49.3349 75.1348H131.641C134.253 75.1348 136.396 77.2153 136.396 79.8328L128.426 107.954C127.69 110.571 126.283 112.652 123.671 112.652Z" fill="white" stroke="black" stroke-miterlimit="10" stroke-linecap="round" stroke-linejoin="round"/>
<path d="M121.93 101.375H132.98C133.985 101.375 134.855 100.637 135.056 99.6303L140.146 81.9793C140.347 80.7042 139.409 79.4961 138.07 79.4961H127.02C126.015 79.4961 125.145 80.2343 124.944 81.2411L119.854 98.8921C119.586 100.167 120.591 101.375 121.93 101.375Z" fill="#FF6633" stroke="black" stroke-miterlimit="10"/>
<path d="M138.941 82.9866H42.1024C40.9639 82.9866 40.0264 82.047 40.0264 80.906V67.0805C40.0264 65.9396 40.9639 65 42.1024 65H138.941C140.079 65 141.017 65.9396 141.017 67.0805V80.906C141.017 82.1141 140.079 82.9866 138.941 82.9866Z" fill="#FEE05B" stroke="black" stroke-miterlimit="10"/>
<path d="M59.6426 90L59.6426 93" stroke="black" stroke-linecap="round"/>
<path d="M67.6426 90L67.6426 93" stroke="black" stroke-linecap="round"/>
<path d="M113.643 138L113.643 141" stroke="black" stroke-linecap="round"/>
<path d="M121.643 138L121.643 141" stroke="black" stroke-linecap="round"/>
<path d="M61.6426 97H65.6426" stroke="black" stroke-linecap="round"/>
<path d="M120.143 144.5C120.143 144.623 120.03 144.869 119.54 145.113C119.08 145.343 118.41 145.5 117.643 145.5C116.875 145.5 116.205 145.343 115.745 145.113C115.255 144.869 115.143 144.623 115.143 144.5C115.143 144.377 115.255 144.131 115.745 143.887C116.205 143.657 116.875 143.5 117.643 143.5C118.41 143.5 119.08 143.657 119.54 143.887C120.03 144.131 120.143 144.377 120.143 144.5Z" stroke="black"/>
</svg>
