<svg width="144" height="168" viewBox="0 0 144 168" fill="none" xmlns="http://www.w3.org/2000/svg">
<path d="M106.435 24.3687C102.747 18.3914 94.9822 16.2356 88.7703 19.5672C82.2673 22.9969 79.7437 31.228 83.1408 37.7934C76.6377 41.223 74.1142 49.4541 77.5113 56.0194C80.9084 62.5848 89.0615 65.1325 95.5646 61.7029C95.6617 61.6049 95.7587 61.6049 95.9528 61.5069C99.9323 66.0144 106.63 67.3863 112.162 64.4466C117.986 61.3109 120.606 54.4516 118.665 48.3762C118.762 48.3762 118.762 48.2783 118.859 48.2783C125.362 44.8486 127.886 36.6175 124.489 30.0522C121.092 23.4868 112.938 20.9391 106.435 24.3687Z" fill="white" stroke="#242424" stroke-miterlimit="10" stroke-linecap="round" stroke-linejoin="round"/>
<path d="M137.626 95.0228L129.907 93.8955L128.271 90.2267C128.533 88.8341 127.355 87.5742 125.785 87.5742L16.3239 87.8487C14.7539 87.8487 13.5763 89.1086 13.838 90.5012L14.8193 93.8292L6.1976 94.8902C5.41256 95.0228 4.8892 95.7522 5.02004 96.548L6.13218 104.041C6.26302 104.837 6.98263 105.367 7.76767 105.235L15.4872 104.107L22.6834 147.144C22.8797 148.205 23.9264 149.001 25.1694 149.001H118.589C119.832 149.001 120.813 148.205 121.075 147.144L128.271 104.174L136.252 105.367C137.037 105.5 137.757 104.97 137.888 104.174L139 96.6806C138.935 95.8849 138.411 95.0891 137.626 95.0228Z" fill="#FEE05B" stroke="#242424" stroke-miterlimit="10"/>
<path d="M68.2026 106L68.2026 108.848" stroke="black" stroke-linecap="round"/>
<path d="M75.7976 106L75.7976 108.848" stroke="black" stroke-linecap="round"/>
<path d="M70 112.621H74" stroke="black" stroke-linecap="round"/>
<path d="M53.0977 44.4639C49.3076 41.006 43.46 41.2221 39.8865 44.8961L39.5616 45.2203L38.0456 44.3558C33.6057 41.7624 27.8664 43.2752 25.2675 47.8138C22.6686 52.2442 24.1846 57.9714 28.7327 60.5649L31.3317 62.0777L31.44 64.0228C31.6565 69.1017 35.9881 73.208 41.0777 72.9918C46.1673 72.7757 50.2822 68.4533 50.0656 63.3745L49.9574 61.5374L53.5309 57.7553C56.9961 53.8652 56.7796 48.0299 53.0977 44.4639Z" fill="white" stroke="#242424" stroke-miterlimit="10" stroke-linecap="round" stroke-linejoin="round"/>
<mask id="path-7-inside-1" fill="white">
<path fill-rule="evenodd" clip-rule="evenodd" d="M69.1838 76C68.0792 76 67.1838 76.8954 67.1838 78V85.4938H14.1895C13.0849 85.4938 12.1895 86.3892 12.1895 87.4938V92.9875C12.1895 94.0921 13.0849 94.9875 14.1895 94.9875H128.862C129.966 94.9875 130.862 94.0921 130.862 92.9875V87.4938C130.862 86.3892 129.966 85.4938 128.862 85.4938H75.8671V78C75.8671 76.8954 74.9717 76 73.8671 76H69.1838Z"/>
</mask>
<path fill-rule="evenodd" clip-rule="evenodd" d="M69.1838 76C68.0792 76 67.1838 76.8954 67.1838 78V85.4938H14.1895C13.0849 85.4938 12.1895 86.3892 12.1895 87.4938V92.9875C12.1895 94.0921 13.0849 94.9875 14.1895 94.9875H128.862C129.966 94.9875 130.862 94.0921 130.862 92.9875V87.4938C130.862 86.3892 129.966 85.4938 128.862 85.4938H75.8671V78C75.8671 76.8954 74.9717 76 73.8671 76H69.1838Z" fill="#FFCC05"/>
<path d="M67.1838 85.4938V86.4938H68.1838V85.4938H67.1838ZM75.8671 85.4938H74.8671V86.4938H75.8671V85.4938ZM68.1838 78C68.1838 77.4477 68.6315 77 69.1838 77V75C67.5269 75 66.1838 76.3431 66.1838 78H68.1838ZM68.1838 85.4938V78H66.1838V85.4938H68.1838ZM14.1895 86.4938H67.1838V84.4938H14.1895V86.4938ZM13.1895 87.4938C13.1895 86.9415 13.6372 86.4938 14.1895 86.4938V84.4938C12.5326 84.4938 11.1895 85.8369 11.1895 87.4938H13.1895ZM13.1895 92.9875V87.4938H11.1895V92.9875H13.1895ZM14.1895 93.9875C13.6372 93.9875 13.1895 93.5398 13.1895 92.9875H11.1895C11.1895 94.6444 12.5326 95.9875 14.1895 95.9875V93.9875ZM128.862 93.9875H14.1895V95.9875H128.862V93.9875ZM129.862 92.9875C129.862 93.5398 129.414 93.9875 128.862 93.9875V95.9875C130.518 95.9875 131.862 94.6444 131.862 92.9875H129.862ZM129.862 87.4938V92.9875H131.862V87.4938H129.862ZM128.862 86.4938C129.414 86.4938 129.862 86.9415 129.862 87.4938H131.862C131.862 85.8369 130.518 84.4938 128.862 84.4938V86.4938ZM75.8671 86.4938H128.862V84.4938H75.8671V86.4938ZM74.8671 78V85.4938H76.8671V78H74.8671ZM73.8671 77C74.4194 77 74.8671 77.4477 74.8671 78H76.8671C76.8671 76.3431 75.5239 75 73.8671 75V77ZM69.1838 77H73.8671V75H69.1838V77Z" fill="#242424" mask="url(#path-7-inside-1)"/>
</svg>
