<svg width="144" height="168" viewBox="0 0 144 168" fill="none" xmlns="http://www.w3.org/2000/svg">
<g clip-path="url(#clip0)">
<path d="M40.1309 44.7766C37.3278 40.2935 31.4265 38.6767 26.7055 41.1754C21.7631 43.7477 19.8452 49.921 22.427 54.845C17.4847 57.4172 15.5668 63.5906 18.1486 68.5146C20.7304 73.4386 26.9268 75.3494 31.8691 72.7771C31.9429 72.7036 32.0166 72.7037 32.1642 72.6302C35.1886 76.0108 40.2784 77.0397 44.4831 74.8349C48.9091 72.4832 50.9008 67.3387 49.4254 62.7822C49.4992 62.7822 49.4992 62.7087 49.573 62.7087C54.5153 60.1365 56.4332 53.9631 53.8514 49.0391C51.2696 44.1151 45.0732 42.2043 40.1309 44.7766Z" fill="white" stroke="#242424" stroke-miterlimit="10" stroke-linecap="round" stroke-linejoin="round"/>
<path d="M128.511 31.7277C133.389 24.8152 132.105 15.1939 125.477 9.88797C118.602 4.30584 108.29 5.40276 102.624 12.2708C95.7492 6.68867 85.4374 7.7856 79.771 14.6536C74.1045 21.5217 75.1378 31.7584 82.0124 37.3405C82.1668 37.4017 82.2127 37.5092 82.4131 37.678C79.3016 44.218 80.949 52.2858 86.8219 57.0244C93.0495 61.9929 101.887 61.6523 107.7 56.6288C107.746 56.7363 107.854 56.6899 107.9 56.7975C114.775 62.3796 125.086 61.2827 130.753 54.4146C136.419 47.5466 135.386 37.3099 128.511 31.7277Z" fill="white" stroke="#242424" stroke-miterlimit="10" stroke-linecap="round" stroke-linejoin="round"/>
<path d="M134.838 108.71L127.979 107.703L128.851 102.37C129.083 101.126 128.037 100 126.642 100H26.0272C24.6322 100 23.5859 101.126 23.8184 102.37L24.6903 107.643L18.0641 108.591C17.3666 108.71 16.9016 109.362 17.0178 110.073L18.0059 116.768C18.1222 117.479 18.7616 117.953 19.4591 117.835L26.2597 116.887L32.6535 155.341C32.8278 156.289 33.7578 157 34.8622 157H117.865C118.969 157 119.841 156.289 120.074 155.341L126.467 116.946L133.559 118.012C134.256 118.131 134.896 117.657 135.012 116.946L136 110.251C136 109.48 135.535 108.828 134.838 108.71Z" fill="#FFECA4" stroke="black" stroke-miterlimit="10"/>
<path d="M97 113L97 115.848" stroke="black" stroke-linecap="round"/>
<path d="M106 113L106 115.848" stroke="black" stroke-linecap="round"/>
<path d="M100 118L101.5 120L103 118" stroke="black" stroke-linecap="round" stroke-linejoin="round"/>
<path d="M126.381 94.2885H82.5532V92.3269C82.5532 89.9615 80.5743 88 78.1879 88H74.6957C72.3093 88 70.3304 89.9615 70.3304 92.3269V94.3462H26.6192C25.1641 94.3462 24 95.5 24 96.9423V100.404C24 101.846 25.1641 103 26.6192 103H126.381C127.836 103 129 101.846 129 100.404V96.9423C129 95.5 127.836 94.2885 126.381 94.2885Z" fill="#FFDF64" stroke="black" stroke-miterlimit="10"/>
<path d="M69.0977 101.464C65.3076 98.006 59.46 98.2221 55.8865 101.896L55.5616 102.22L54.0456 101.356C49.6057 98.7624 43.8664 100.275 41.2675 104.814C38.6686 109.244 40.1846 114.971 44.7327 117.565L47.3317 119.078L47.44 121.023C47.6565 126.102 51.9881 130.208 57.0777 129.992C62.1673 129.776 66.2822 125.453 66.0656 120.374L65.9574 118.537L69.5309 114.755C72.9961 110.865 72.7796 105.03 69.0977 101.464Z" fill="white" stroke="#242424" stroke-miterlimit="10" stroke-linecap="round" stroke-linejoin="round"/>
</g>
<defs>
<clipPath id="clip0">
<rect width="144" height="168" fill="white"/>
</clipPath>
</defs>
</svg>
