<svg width="144" height="168" viewBox="0 0 144 168" fill="none" xmlns="http://www.w3.org/2000/svg">
<path d="M137 40.9275H109.565L128.972 21.5204L122.48 15.0281L103.073 34.4352V7H93.9275V34.4352L74.5204 15.0281L68.0281 21.5204L87.4352 40.9275H60V50.0725H87.4352L68.0281 69.4796L74.5204 75.9719L93.9275 56.5648V84H103.073V56.5648L122.48 75.9719L128.972 69.4796L109.565 50.0725H137V40.9275Z" fill="#6BDDB7" stroke="black" stroke-miterlimit="10"/>
<path d="M13.6433 103.57C13.6307 103.55 13.6179 103.53 13.6048 103.511L13.8605 103.534L13.124 102.618C12.487 101.826 12.2013 100.836 12.441 99.7729C12.8271 98.2227 14.2654 97.23 15.8656 97.3725L16.7955 97.4553L16.349 96.6354C15.9568 95.9149 15.8146 95.1398 16.0065 94.2887C16.3908 92.7462 17.8785 91.7451 19.4868 91.8883L20.3407 91.9643L19.9865 91.1837C19.693 90.5369 19.6028 89.838 19.7907 89.1479L19.7908 89.1479L19.7928 89.1402C20.2238 87.4512 22.0096 86.3713 23.8164 86.8018L23.8736 86.8154H23.9311C23.9335 86.8161 23.9403 86.8182 23.9535 86.8241C23.9713 86.8319 23.993 86.8428 24.029 86.8617C24.0341 86.8644 24.0395 86.8672 24.0452 86.8702C24.0762 86.8865 24.116 86.9075 24.1581 86.9281L25.1751 87.4262L24.858 86.3391C24.7105 85.8333 24.6661 85.2711 24.8068 84.7201C25.2349 83.0427 26.9993 81.9659 28.7935 82.3731C28.8594 82.411 28.9901 82.4771 29.1691 82.4771H29.7291L29.666 81.9208C29.6151 81.4727 29.6168 81.1251 29.7095 80.7092C29.9569 79.8473 30.4391 79.2192 31.1069 78.7987L31.1221 78.7892L31.1365 78.7786C31.7402 78.3351 32.4188 78.0571 33.1803 78.0571C33.5634 78.0571 33.9509 78.1272 34.345 78.272L35.0174 78.5189V77.8026V77.8021V77.8017V77.8012V77.8007V77.8002V77.7997V77.7993V77.7988V77.7983V77.7978V77.7974V77.7969V77.7964V77.7959V77.7954V77.795V77.7945V77.794V77.7935V77.793V77.7926V77.7921V77.7916V77.7911V77.7906V77.7902V77.7897V77.7892V77.7887V77.7882V77.7878V77.7873V77.7868V77.7863V77.7858V77.7854V77.7849V77.7844V77.7839V77.7834V77.783V77.7825V77.782V77.7815V77.781V77.7806V77.7801V77.7796V77.7791V77.7786V77.7782V77.7777V77.7772V77.7767V77.7762V77.7758V77.7753V77.7748V77.7743V77.7739V77.7734V77.7729V77.7724V77.7719V77.7715V77.771V77.7705V77.77V77.7695V77.7691V77.7686V77.7681V77.7676V77.7671V77.7667V77.7662V77.7657V77.7652V77.7647V77.7643V77.7638V77.7633V77.7628V77.7623V77.7619V77.7614V77.7609V77.7604V77.7599V77.7595V77.759V77.7585V77.758V77.7575V77.7571V77.7566V77.7561V77.7556V77.7551V77.7547V77.7542V77.7537V77.7532V77.7527V77.7523V77.7518V77.7513V77.7508V77.7503V77.7499V77.7494V77.7489V77.7484V77.748V77.7475V77.747V77.7465V77.746V77.7456V77.7451V77.7446V77.7441V77.7436V77.7432V77.7427V77.7422V77.7417V77.7412V77.7408V77.7403V77.7398V77.7393V77.7388V77.7384V77.7379V77.7374V77.7369V77.7364V77.736V77.7355V77.735V77.7345V77.734V77.7336V77.7331V77.7326V77.7321V77.7316V77.7312V77.7307V77.7302V77.7297V77.7292V77.7288V77.7283V77.7278V77.7273V77.7268V77.7264V77.7259V77.7254V77.7249V77.7245V77.724V77.7235V77.723V77.7225V77.7221V77.7216V77.7211V77.7206V77.7201V77.7197V77.7192V77.7187V77.7182V77.7177V77.7173V77.7168V77.7163V77.7158V77.7153V77.7149V77.7144V77.7139V77.7134V77.7129V77.7125V77.712V77.7115V77.711V77.7105V77.7101V77.7096V77.7091V77.7086V77.7081V77.7077V77.7072V77.7067V77.7062V77.7057V77.7053V77.7048V77.7043V77.7038V77.7033V77.7029V77.7024V77.7019V77.7014V77.7009V77.7005V77.7V77.6995V77.699V77.6986V77.6981V77.6976V77.6971V77.6966V77.6962V77.6957V77.6952V77.6947V77.6942V77.6938V77.6933V77.6928V77.6923V77.6918V77.6914V77.6909V77.6904V77.6899V77.6894V77.689V77.6885V77.688V77.6875V77.687V77.6866V77.6861V77.6856V77.6851V77.6846V77.6842V77.6837V77.6832V77.6827V77.6822V77.6818V77.6813V77.6808V77.6803V77.6798V77.6794V77.6789V77.6784V77.6779V77.6774V77.677V77.6765V77.676V77.6755V77.675V77.6746V77.6741V77.6736V77.6731V77.6727V77.6722V77.6717V77.6712V77.6707V77.6703V77.6698V77.6693V77.6688V77.6683V77.6679V77.6674V77.6669V77.6664V77.6659V77.6655V77.665V77.6645V77.664V77.6635V77.6631V77.6626V77.6621V77.6616V77.6611V77.6607V77.6602V77.6597V77.6592V77.6587V77.6583V77.6578V77.6573V77.6568V77.6563V77.6559V77.6554V77.6549V77.6544V77.6539V77.6535V77.653V77.6525V77.652V77.6515V77.6511V77.6506V77.6501V77.6496V77.6491V77.6487V77.6482V77.6477V77.6472V77.6468V77.6463V77.6458V77.6453V77.6448V77.6444V77.6439V77.6434V77.6429V77.6424V77.642V77.6415V77.641V77.6405V77.64V77.6396V77.6391V77.6386V77.6381V77.6376V77.6372V77.6367V77.6362V77.6357V77.6352V77.6348V77.6343V77.6338V77.6333V77.6328V77.6324V77.6319V77.6314V77.6309V77.6304V77.63V77.6295V77.629V77.6285V77.628V77.6276V77.6271V77.6266V77.6261V77.6256V77.6252V77.6247V77.6242V77.6237V77.6233V77.6228V77.6223V77.6218V77.6213V77.6209V77.6204V77.6199V77.6194V77.6189V77.6185V77.618V77.6175V77.617V77.6165V77.6161V77.6156V77.6151V77.6146V77.6141V77.6137V77.6132V77.6127V77.6122V77.6117V77.6113V77.6108V77.6103V77.6098V77.6093V77.6089V77.6084V77.6079V77.6074V77.6069V77.6065V77.606V77.6055V77.605V77.6045V77.6041V77.6036V77.6031V77.6026V77.6021V77.6017V77.6012V77.6007V77.6002V77.5997V77.5993V77.5988V77.5983V77.5978V77.5974V77.5969V77.5964V77.5959V77.5954V77.595V77.5945V77.594V77.5935V77.593V77.5926V77.5921V77.5916V77.5911V77.5906V77.5902V77.5897V77.5892V77.5887V77.5882V77.5878V77.5873V77.5868V77.5863V77.5858V77.5854V77.5849V77.5844V77.5839V77.5834V77.583V77.5825V77.582V77.5815V77.581V77.5806V77.5801V77.5796V77.5791V77.5786V77.5782V77.5777V77.5772V77.5767V77.5762V77.5758V77.5753V77.5748V77.5743V77.5739V77.5734V77.5729V77.5724V77.5719V77.5715V77.571V77.5705V77.57V77.5695V77.5691V77.5686V77.5681V77.5676V77.5671V77.5667V77.5662V77.5657V77.5652V77.5647V77.5643V77.5638V77.5633V77.5628V77.5623V77.5619V77.5614V77.5609V77.5604V77.5599V77.5595V77.559V77.5585V77.558V77.5575V77.5571C35.0174 75.799 36.4526 74.3737 38.3057 74.3737C38.8884 74.3737 39.4133 74.5152 39.8909 74.7959L40.6442 75.2386V74.3648C40.6442 74.2398 40.624 74.1216 40.6111 74.0464L40.6093 74.0354C40.5941 73.946 40.5885 73.9061 40.5885 73.8737C40.5885 72.1156 42.0237 70.6903 43.8768 70.6903C44.6231 70.6903 45.3414 70.9109 45.8483 71.3171L46.5174 71.8533L46.6546 71.0069C46.8938 69.5303 48.2445 68.3165 49.8936 68.3165C50.7625 68.3165 51.5848 68.6723 52.1622 69.2378L52.8574 69.9188L53.0062 68.957C53.2453 67.4111 54.5858 66.2702 56.2447 66.2702C57.3528 66.2702 58.3238 66.8376 58.9073 67.6235L59.6201 68.5835L59.8029 67.4018C60.0444 65.8404 61.3983 64.6331 63.0414 64.6331C64.0782 64.6331 65.0324 65.0682 65.5927 65.8227L66.1258 66.5408L66.4583 65.7105C66.9426 64.5007 68.1011 63.6509 69.5039 63.6509C70.7111 63.6509 71.7273 64.2873 72.3117 65.2176L72.7351 65.8915L73.1585 65.2176C73.743 64.2873 74.7591 63.6509 75.9664 63.6509C77.3176 63.6509 78.5293 64.5047 79.012 65.7105L79.3271 66.4976L79.8634 65.8409C80.4429 65.1314 81.3624 64.6331 82.4288 64.6331C84.0719 64.6331 85.4258 65.8404 85.6674 67.4018L85.851 68.589L86.5639 67.6221C87.1979 66.7624 88.1096 66.2702 89.2256 66.2702C90.8627 66.2702 92.1754 67.4743 92.4674 68.9761L92.6447 69.8876L93.3081 69.2378C93.8854 68.6723 94.7077 68.3165 95.5766 68.3165C97.2355 68.3165 98.576 69.4574 98.8151 71.0034L98.935 71.7782L99.5869 71.3427C100.142 70.972 100.827 70.6903 101.593 70.6903C103.396 70.6903 104.882 72.1203 104.882 73.8737C104.882 73.9061 104.876 73.946 104.861 74.0353L104.859 74.0464C104.846 74.1216 104.826 74.2398 104.826 74.3648V75.2386L105.579 74.7959C106.057 74.5152 106.582 74.3737 107.165 74.3737C108.967 74.3737 110.453 75.8037 110.453 77.5571V77.5575V77.558V77.5585V77.559V77.5595V77.5599V77.5604V77.5609V77.5614V77.5619V77.5623V77.5628V77.5633V77.5638V77.5643V77.5647V77.5652V77.5657V77.5662V77.5667V77.5671V77.5676V77.5681V77.5686V77.5691V77.5695V77.57V77.5705V77.571V77.5715V77.5719V77.5724V77.5729V77.5734V77.5739V77.5743V77.5748V77.5753V77.5758V77.5762V77.5767V77.5772V77.5777V77.5782V77.5786V77.5791V77.5796V77.5801V77.5806V77.581V77.5815V77.582V77.5825V77.583V77.5834V77.5839V77.5844V77.5849V77.5854V77.5858V77.5863V77.5868V77.5873V77.5878V77.5882V77.5887V77.5892V77.5897V77.5902V77.5906V77.5911V77.5916V77.5921V77.5926V77.593V77.5935V77.594V77.5945V77.595V77.5954V77.5959V77.5964V77.5969V77.5974V77.5978V77.5983V77.5988V77.5993V77.5997V77.6002V77.6007V77.6012V77.6017V77.6021V77.6026V77.6031V77.6036V77.6041V77.6045V77.605V77.6055V77.606V77.6065V77.6069V77.6074V77.6079V77.6084V77.6089V77.6093V77.6098V77.6103V77.6108V77.6113V77.6117V77.6122V77.6127V77.6132V77.6137V77.6141V77.6146V77.6151V77.6156V77.6161V77.6165V77.617V77.6175V77.618V77.6185V77.6189V77.6194V77.6199V77.6204V77.6209V77.6213V77.6218V77.6223V77.6228V77.6233V77.6237V77.6242V77.6247V77.6252V77.6256V77.6261V77.6266V77.6271V77.6276V77.628V77.6285V77.629V77.6295V77.63V77.6304V77.6309V77.6314V77.6319V77.6324V77.6328V77.6333V77.6338V77.6343V77.6348V77.6352V77.6357V77.6362V77.6367V77.6372V77.6376V77.6381V77.6386V77.6391V77.6396V77.64V77.6405V77.641V77.6415V77.642V77.6424V77.6429V77.6434V77.6439V77.6444V77.6448V77.6453V77.6458V77.6463V77.6468V77.6472V77.6477V77.6482V77.6487V77.6491V77.6496V77.6501V77.6506V77.6511V77.6515V77.652V77.6525V77.653V77.6535V77.6539V77.6544V77.6549V77.6554V77.6559V77.6563V77.6568V77.6573V77.6578V77.6583V77.6587V77.6592V77.6597V77.6602V77.6607V77.6611V77.6616V77.6621V77.6626V77.6631V77.6635V77.664V77.6645V77.665V77.6655V77.6659V77.6664V77.6669V77.6674V77.6679V77.6683V77.6688V77.6693V77.6698V77.6703V77.6707V77.6712V77.6717V77.6722V77.6727V77.6731V77.6736V77.6741V77.6746V77.675V77.6755V77.676V77.6765V77.677V77.6774V77.6779V77.6784V77.6789V77.6794V77.6798V77.6803V77.6808V77.6813V77.6818V77.6822V77.6827V77.6832V77.6837V77.6842V77.6846V77.6851V77.6856V77.6861V77.6866V77.687V77.6875V77.688V77.6885V77.689V77.6894V77.6899V77.6904V77.6909V77.6914V77.6918V77.6923V77.6928V77.6933V77.6938V77.6942V77.6947V77.6952V77.6957V77.6962V77.6966V77.6971V77.6976V77.6981V77.6986V77.699V77.6995V77.7V77.7005V77.7009V77.7014V77.7019V77.7024V77.7029V77.7033V77.7038V77.7043V77.7048V77.7053V77.7057V77.7062V77.7067V77.7072V77.7077V77.7081V77.7086V77.7091V77.7096V77.7101V77.7105V77.711V77.7115V77.712V77.7125V77.7129V77.7134V77.7139V77.7144V77.7149V77.7153V77.7158V77.7163V77.7168V77.7173V77.7177V77.7182V77.7187V77.7192V77.7197V77.7201V77.7206V77.7211V77.7216V77.7221V77.7225V77.723V77.7235V77.724V77.7245V77.7249V77.7254V77.7259V77.7264V77.7268V77.7273V77.7278V77.7283V77.7288V77.7292V77.7297V77.7302V77.7307V77.7312V77.7316V77.7321V77.7326V77.7331V77.7336V77.734V77.7345V77.735V77.7355V77.736V77.7364V77.7369V77.7374V77.7379V77.7384V77.7388V77.7393V77.7398V77.7403V77.7408V77.7412V77.7417V77.7422V77.7427V77.7432V77.7436V77.7441V77.7446V77.7451V77.7456V77.746V77.7465V77.747V77.7475V77.748V77.7484V77.7489V77.7494V77.7499V77.7503V77.7508V77.7513V77.7518V77.7523V77.7527V77.7532V77.7537V77.7542V77.7547V77.7551V77.7556V77.7561V77.7566V77.7571V77.7575V77.758V77.7585V77.759V77.7595V77.7599V77.7604V77.7609V77.7614V77.7619V77.7623V77.7628V77.7633V77.7638V77.7643V77.7647V77.7652V77.7657V77.7662V77.7667V77.7671V77.7676V77.7681V77.7686V77.7691V77.7695V77.77V77.7705V77.771V77.7715V77.7719V77.7724V77.7729V77.7734V77.7739V77.7743V77.7748V77.7753V77.7758V77.7762V77.7767V77.7772V77.7777V77.7782V77.7786V77.7791V77.7796V77.7801V77.7806V77.781V77.7815V77.782V77.7825V77.783V77.7834V77.7839V77.7844V77.7849V77.7854V77.7858V77.7863V77.7868V77.7873V77.7878V77.7882V77.7887V77.7892V77.7897V77.7902V77.7906V77.7911V77.7916V77.7921V77.7926V77.793V77.7935V77.794V77.7945V77.795V77.7954V77.7959V77.7964V77.7969V77.7974V77.7978V77.7983V77.7988V77.7993V77.7997V77.8002V77.8007V77.8012V77.8017V77.8021V77.8026V78.5548L111.146 78.2637C111.465 78.13 111.843 78.0571 112.29 78.0571C113.835 78.0571 115.098 79.1223 115.486 80.4778L115.508 80.555L115.554 80.6214C115.567 80.6411 115.576 80.6547 115.584 80.6669L115.591 80.6963C115.687 81.1199 115.688 81.5498 115.639 81.9097L115.561 82.4771H116.134C116.268 82.4771 116.368 82.4286 116.407 82.4082C116.42 82.4014 116.432 82.3947 116.441 82.3891L116.473 82.3817C118.28 81.9512 120.065 83.0311 120.496 84.7201C120.637 85.2711 120.593 85.8333 120.445 86.3391L120.032 87.7557L121.221 86.882C121.247 86.8632 121.28 86.844 121.313 86.8307C121.347 86.817 121.367 86.8154 121.371 86.8154H121.43L121.487 86.8018C123.294 86.3713 125.079 87.4512 125.51 89.1402L125.51 89.1402L125.512 89.1479C125.7 89.838 125.61 90.5369 125.317 91.1837L124.962 91.9643L125.816 91.8883C127.426 91.745 128.915 92.7482 129.298 94.2934C129.487 95.0576 129.348 95.9123 128.954 96.6354L128.506 97.458L129.439 97.3724C130.986 97.2303 132.477 98.226 132.862 99.773C133.102 100.836 132.816 101.826 132.179 102.618L131.443 103.534L132.613 103.43C134.231 103.286 135.769 104.297 136.15 105.834C136.367 106.728 136.15 107.639 135.652 108.405L14.3408 107.626C13.8168 106.876 13.6308 105.968 13.85 105.057C14.0127 104.464 13.8901 103.962 13.6433 103.57ZM29.2902 81.5052L29.2901 81.5051L29.2902 81.5052Z" fill="white" stroke="#242424"/>
<path d="M92.0923 156.284H55.5351C55.0874 156.284 54.7534 155.951 54.7534 155.501V143.671C54.7534 143.221 55.0874 142.888 55.5351 142.888H92.0923C92.54 142.888 92.874 143.221 92.874 143.671V155.501C92.874 155.951 92.54 156.284 92.0923 156.284Z" fill="#78B3F9" stroke="black"/>
<path d="M8.50282 95.5675H139.07C138.799 125.085 114.609 149.14 85.0709 149.14H62.5013C32.982 149.14 8.80266 125.115 8.50282 95.5675Z" fill="#78B3F9" stroke="black"/>
<path d="M68 106L68 109" stroke="black" stroke-linecap="round"/>
<path d="M79 106L79 109" stroke="black" stroke-linecap="round"/>
<circle cx="74" cy="115" r="2.5" stroke="black"/>
</svg>
